<svg width="1494" height="550" viewBox="0 0 1494 550" fill="none" xmlns="http://www.w3.org/2000/svg">
<rect width="1494" height="550" rx="23.6449" fill="black"/>
<path d="M662.008 296.75V264.25H536.5V239.5H605.75V208.75H536.5V182.5H613V150H502L502 296.75H662.008Z" fill="white"/>
<path d="M662.008 296.75V150H628.758V296.75H662.008Z" fill="white"/>
<path d="M798.605 150H765.855V186C762.355 179.5 752.355 170.75 731.105 170.75C696.355 170.75 672.105 199 672.105 235C672.105 272.25 697.105 299.75 732.105 299.75C748.605 299.75 761.105 292.25 766.605 282.5C766.605 288.25 767.355 294.25 767.855 296.75H799.605C799.105 291.75 798.605 282.75 798.605 274.5V150ZM705.605 235C705.605 213 719.105 200.5 736.105 200.5C753.105 200.5 766.355 212.75 766.355 234.75C766.355 257 753.105 270 736.105 270C718.605 270 705.605 257 705.605 235Z" fill="white"/>
<path d="M873.676 270.25C857.426 270.25 842.426 258.25 842.426 235.25C842.426 212 857.426 200.25 873.676 200.25C889.926 200.25 904.926 212 904.926 235.25C904.926 258.5 889.926 270.25 873.676 270.25ZM873.676 170C836.926 170 809.176 197.25 809.176 235.25C809.176 273 836.926 300.5 873.676 300.5C910.426 300.5 938.176 273 938.176 235.25C938.176 197.25 910.426 170 873.676 170Z" fill="white"/>
<path d="M1023.17 173.25C1020.67 173 1018.17 172.75 1015.42 172.75C1004.92 172.75 987.922 175.75 980.422 192V173.75H948.172V296.75H981.422V240.5C981.422 214 996.172 205.75 1013.17 205.75C1016.17 205.75 1019.42 206 1023.17 206.75V173.25Z" fill="white"/>
<path d="M1023.54 263.25C1023.54 282.5 1039.54 300.25 1065.79 300.25C1084.04 300.25 1095.79 291.75 1102.04 282C1102.04 286.75 1102.54 293.5 1103.29 296.75H1133.79C1133.04 292.5 1132.29 283.75 1132.29 277.25V216.75C1132.29 192 1117.79 170 1078.79 170C1045.79 170 1028.04 191.25 1026.04 210.5L1055.54 216.75C1056.54 206 1064.54 196.75 1079.04 196.75C1093.04 196.75 1099.79 204 1099.79 212.75C1099.79 217 1097.54 220.5 1090.54 221.5L1060.29 226C1039.79 229 1023.54 241.25 1023.54 263.25ZM1072.79 275.5C1062.04 275.5 1056.79 268.5 1056.79 261.25C1056.79 251.75 1063.54 247 1072.04 245.75L1099.79 241.5V247C1099.79 268.75 1086.79 275.5 1072.79 275.5Z" fill="white"/>
<path d="M1266.32 150H1233.57V186C1230.07 179.5 1220.07 170.75 1198.82 170.75C1164.07 170.75 1139.82 199 1139.82 235C1139.82 272.25 1164.82 299.75 1199.82 299.75C1216.32 299.75 1228.82 292.25 1234.32 282.5C1234.32 288.25 1235.07 294.25 1235.57 296.75H1267.32C1266.82 291.75 1266.32 282.75 1266.32 274.5V150ZM1173.32 235C1173.32 213 1186.82 200.5 1203.82 200.5C1220.82 200.5 1234.07 212.75 1234.07 234.75C1234.07 257 1220.82 270 1203.82 270C1186.32 270 1173.32 257 1173.32 235Z" fill="white"/>
<path d="M1341.39 270.25C1325.14 270.25 1310.14 258.25 1310.14 235.25C1310.14 212 1325.14 200.25 1341.39 200.25C1357.64 200.25 1372.64 212 1372.64 235.25C1372.64 258.5 1357.64 270.25 1341.39 270.25ZM1341.39 170C1304.64 170 1276.89 197.25 1276.89 235.25C1276.89 273 1304.64 300.5 1341.39 300.5C1378.14 300.5 1405.89 273 1405.89 235.25C1405.89 197.25 1378.14 170 1341.39 170Z" fill="white"/>
<path d="M95 150.011V295.12H153.05V266.101H124.031V179.031H196.579V208.05H153.05V237.07H225.61V150.011H95Z" fill="#FFE539"/>
<path d="M297.727 150.011V208.05H225.167V179.031H268.697V150.011H196.148V237.07H326.747V150.011H297.727Z" fill="#FFE539"/>
<path d="M298.004 150.011V295.12H356.054V266.101H327.035V179.031H399.584V208.05H356.054V237.07H428.614V150.011H298.004Z" fill="#FFE539"/>
<path d="M428.603 266.089H95V295.109H428.603V266.089Z" fill="#FFE539"/>
<path d="M428.614 150.011H268.697V178.942H428.614V150.011Z" fill="#FFE539"/>
<path d="M457.557 150H428.615V295.109H457.557V150Z" fill="#FFE539"/>
<path d="M457.557 411.109L457.557 266L399.506 266L399.506 295.02L428.526 295.02L428.526 382.089L355.977 382.089L355.977 353.07L399.506 353.07L399.506 324.05L326.946 324.05L326.946 411.109L457.557 411.109Z" fill="#FFE539"/>
<path d="M254.829 411.109L254.829 353.07L327.389 353.07L327.389 382.089L283.86 382.089L283.86 411.109L356.409 411.109L356.409 324.05L225.81 324.05L225.81 411.109L254.829 411.109Z" fill="#FFE539"/>
<path d="M254.552 411.109L254.553 266L196.502 266L196.502 295.02L225.522 295.02L225.522 382.089L152.973 382.089L152.973 353.07L196.502 353.07L196.502 324.05L123.942 324.05L123.942 411.109L254.552 411.109Z" fill="#FFE539"/>
<path d="M123.953 295.031L457.557 295.031L457.557 266.011L123.953 266.011L123.953 295.031Z" fill="#FFE539"/>
<path d="M123.942 411.109L283.86 411.109L283.86 382.178L123.942 382.178L123.942 411.109Z" fill="#FFE539"/>
<path d="M95 411.12L123.942 411.12L123.942 266.011L95 266.011L95 411.12Z" fill="#FFE539"/>
<path d="M560.2 411V394.36H521.032V373.368H556.488V357.624H521.032V336.888H560.2V320.248H503.368V411H560.2ZM680.643 320.248H660.035L640.195 351.608L620.739 320.248H599.491L629.187 365.56L599.363 411H620.099L639.811 379.64L659.395 411H680.771L650.947 365.688L680.643 320.248ZM759.336 412.92C784.808 412.92 797.864 396.024 801.32 382.072L784.808 377.08C782.376 385.528 774.824 395.64 759.336 395.64C744.744 395.64 731.176 385.016 731.176 365.688C731.176 345.08 745.512 335.352 759.08 335.352C774.824 335.352 781.864 344.952 784.04 353.656L800.68 348.408C797.096 333.688 784.168 318.328 759.08 318.328C734.76 318.328 712.872 336.76 712.872 365.688C712.872 394.616 733.992 412.92 759.336 412.92ZM920.446 411V320.248H902.654V356.728H863.102V320.248H845.438V411H863.102V373.368H902.654V411H920.446ZM1032.2 411H1051.4L1016.84 320.248H996.356L961.54 411H980.228L987.78 390.264H1024.64L1032.2 411ZM1006.21 339.832L1018.76 374.136H993.668L1006.21 339.832ZM1169.88 411V320.248H1152.22V380.28L1114.46 320.248H1092.44V411H1110.11V346.616L1151.32 411H1169.88ZM1302.18 411V363.768H1256.87V379.128H1285.54C1284.52 385.528 1277.99 396.792 1261.22 396.792C1245.99 396.792 1232.55 386.168 1232.55 365.688C1232.55 344.184 1247.4 334.84 1261.1 334.84C1275.82 334.84 1283.37 344.184 1285.67 352.248L1302.57 346.232C1298.09 332.28 1284.9 318.328 1261.1 318.328C1236.52 318.328 1214.63 336.376 1214.63 365.688C1214.63 395 1235.5 412.92 1259.94 412.92C1273.64 412.92 1282.6 406.776 1286.7 400.632L1287.85 411H1302.18ZM1406.28 411V394.36H1367.11V373.368H1402.57V357.624H1367.11V336.888H1406.28V320.248H1349.45V411H1406.28Z" fill="white"/>
</svg>
